<svg xmlns="http://www.w3.org/2000/svg"><symbol id="nostr" viewBox="0 0 24 24"><path d="M23,10.589v11.618c0,.437-.352.792-.786.792h-9.428c-.434,0-.786-.355-.786-.792v-2.164c.043-2.652.321-5.193.906-6.349.351-.695.928-1.073,1.592-1.276,1.254-.38,3.454-.12,4.388-.165,0,0,2.821.113,2.821-1.496,0-1.295-1.261-1.193-1.261-1.193-1.39.036-2.448-.059-3.134-.331-1.149-.455-1.188-1.29-1.192-1.569-.057-3.225-4.776-3.611-8.935-2.811-4.546.871.05,7.436.05,16.2v1.17c-.008.43-.353.778-.783.778H1.786c-.434,0-.786-.355-.786-.792V2.114c0-.437.352-.791.786-.791h4.388c.434,0,.786.355.786.791,0,.649.725,1.011,1.248.632,1.578-1.139,3.604-1.746,5.871-1.746,5.078,0,8.918,2.982,8.918,9.589h.003ZM14.57,8.231c0-.935-.752-1.693-1.681-1.693s-1.681.758-1.681,1.693.752,1.693,1.681,1.693,1.681-.758,1.681-1.693Z" /></symbol><symbol id="signal" viewBox="0 0 24 24"><path d="M12,1c.571,0,1.131.043,1.678.127l-.157,1.019c-.496-.076-1.004-.115-1.521-.115s-1.025.039-1.521.115l-.157-1.019c.547-.084,1.108-.127,1.678-.127ZM14.61,1.312l-.245,1.002c1.005.245,1.95.642,2.81,1.165l.536-.882c-.949-.578-1.992-1.016-3.101-1.286ZM18.501,3.126l-.609.832c.822.603,1.548,1.329,2.151,2.151l.832-.609c-.665-.907-1.467-1.708-2.374-2.374ZM21.403,6.288l-.882.535c.523.86.92,1.805,1.165,2.81l1.002-.245c-.27-1.109-.708-2.152-1.286-3.101ZM22.873,10.322l-1.019.157c.076.496.115,1.004.115,1.521s-.039,1.025-.115,1.521l1.019.157c.084-.547.127-1.108.127-1.678s-.043-1.131-.127-1.678ZM20.521,17.176c.523-.86.92-1.805,1.165-2.811l1.002.245c-.27,1.109-.708,2.152-1.286,3.101l-.882-.535ZM20.042,17.891l.832.609c-.665.907-1.467,1.708-2.374,2.374l-.61-.832c.822-.603,1.548-1.329,2.151-2.151ZM17.176,20.521l.535.882c-.949.578-1.992,1.016-3.101,1.286l-.245-1.002c1.005-.245,1.951-.642,2.81-1.165h0ZM13.521,21.853l.157,1.019c-.547.084-1.108.127-1.678.127s-1.131-.043-1.679-.127l.157-1.019c.496.076,1.004.115,1.521.115s1.025-.039,1.521-.115ZM9.634,21.687l-.245,1.002c-.833-.203-1.629-.5-2.376-.881l-1.044.244-.234-1.004,1.411-.329.336.171c.676.345,1.397.614,2.152.798h0ZM4.865,21.25l.234,1.004-1.789.417c-1.191.278-2.26-.791-1.982-1.982l.418-1.79,1.004.234-.418,1.79c-.104.447.297.847.743.743l1.789-.418ZM2.953,18.264l-1.004-.234.244-1.044c-.38-.747-.678-1.543-.881-2.376l1.002-.245c.184.755.453,1.476.798,2.152l.171.336-.329,1.411ZM2.146,13.521l-1.019.157c-.084-.547-.127-1.108-.127-1.678s.043-1.131.127-1.678l1.019.157c-.076.496-.115,1.004-.115,1.521s.039,1.025.115,1.521ZM2.314,9.634l-1.002-.245c.27-1.109.708-2.152,1.286-3.101l.882.535c-.523.86-.92,1.805-1.165,2.81ZM3.958,6.109l-.832-.609c.665-.907,1.467-1.708,2.374-2.374l.609.832c-.822.603-1.548,1.329-2.151,2.151ZM6.824,3.479l-.535-.882c.949-.578,1.992-1.016,3.101-1.286l.245,1.002c-1.005.245-1.95.642-2.81,1.165ZM20.937,12c0,4.936-4.001,8.938-8.938,8.938-1.566,0-3.037-.403-4.317-1.11-.123-.068-.267-.09-.404-.059l-3.976.928.928-3.976c.032-.137.01-.281-.059-.404-.707-1.28-1.11-2.751-1.11-4.317C3.062,7.064,7.064,3.062,12,3.062s8.938,4.001,8.938,8.938h0Z" /></symbol><symbol id="youtube" viewBox="0 0 24 24"><path d="m22.54,6.842c-.253-.922-.998-1.648-1.945-1.895-1.716-.448-8.595-.448-8.595-.448,0,0-6.88,0-8.595.448-.947.246-1.692.973-1.945,1.895-.46,1.671-.46,5.158-.46,5.158,0,0,0,3.487.46,5.158.253.922.998,1.648,1.945,1.895,1.716.448,8.595.448,8.595.448,0,0,6.88,0,8.595-.448.947-.246,1.692-.973,1.945-1.895.46-1.671.46-5.158.46-5.158,0,0,0-3.487-.46-5.158Zm-12.54,8.372v-6.429l5.716,3.214-5.716,3.214Z" /></symbol><symbol id="telegram" viewBox="0 0 24 24"><path d="m2.511,10.749c5.907-2.54,9.844-4.215,11.816-5.024,5.625-2.31,6.794-2.712,7.557-2.725.167-.003.542.038.785.233.203.164.261.386.288.542s.061.51.033.787c-.306,3.163-1.624,10.837-2.296,14.379-.282,1.499-.842,2.001-1.384,2.05-1.175.107-2.069-.767-3.208-1.504-1.784-1.154-2.79-1.872-4.522-2.998-1.999-1.301-.703-2.017.436-3.185.3-.306,5.483-4.961,5.582-5.383.012-.053.024-.25-.094-.353-.118-.104-.294-.068-.418-.04-.179.04-3.029,1.899-8.545,5.576-.809.548-1.542.815-2.199.801-.724-.015-2.114-.404-3.147-.736-1.269-.407-2.278-.622-2.19-1.314.045-.36.548-.728,1.505-1.105Z" /></symbol><symbol id="reddit" viewBox="0 0 24 24"><path d="m23,12.15c-.049-1.361-1.167-2.425-2.498-2.375-.592.022-1.155.266-1.582.685-1.879-1.307-4.087-2.028-6.359-2.078l1.074-5.271,3.534.76c.098.928.912,1.599,1.819,1.499.907-.1,1.563-.933,1.465-1.861-.098-.928-.912-1.599-1.819-1.499-.522.057-.987.366-1.251.83l-4.046-.828c-.276-.062-.549.117-.61.399,0,.002,0,.004-.001.006l-1.222,5.863c-2.299.035-4.538.758-6.441,2.078-.97-.934-2.496-.886-3.409.106-.913.992-.866,2.553.104,3.487.19.183.408.333.646.445-.019.247-.019.496,0,.743,0,3.785,4.311,6.86,9.629,6.86s9.629-3.075,9.629-6.86c.019-.247.019-.496,0-.743.832-.423,1.352-1.297,1.338-2.247Zm-16.516,1.69c0-.933.739-1.69,1.652-1.69s1.652.756,1.652,1.69-.739,1.69-1.652,1.69-1.652-.756-1.652-1.69Zm9.596,4.646c-1.172.903-2.613,1.363-4.079,1.301-1.466.062-2.908-.398-4.079-1.301-.156-.195-.129-.482.062-.642.164-.138.401-.138.566,0,.993.745,2.205,1.121,3.435,1.064,1.232.069,2.449-.295,3.452-1.031.182-.182.475-.178.652.008.178.187.174.485-.008.667h0v-.068Zm-.297-2.889c-.912,0-1.652-.756-1.652-1.69s.739-1.69,1.652-1.69,1.652.756,1.652,1.69c.037.932-.673,1.719-1.584,1.756-.028.001-.056.002-.084.001l.017-.068Z" /></symbol><symbol id="twitter" viewBox="0 0 24 24"><path d="m14.093,10.315L22.283,1h-1.941l-7.111,8.089L7.551,1H1l8.589,12.231L1,23h1.941l7.51-8.542,5.998,8.542h6.551l-8.907-12.685h0Zm-2.658,3.024l-.87-1.218L3.64,2.43h2.981l5.588,7.821.87,1.218,7.264,10.166h-2.981l-5.927-8.296h0Z" /></symbol><symbol id="github" viewBox="0 0 24 24"><path d="m12.009,1C5.921,1,1,6.042,1,12.279c0,4.986,3.153,9.206,7.528,10.7.547.112.747-.243.747-.541,0-.261-.018-1.158-.018-2.092-3.062.672-3.7-1.345-3.7-1.345-.492-1.307-1.221-1.643-1.221-1.643-1.002-.691.073-.691.073-.691,1.112.075,1.695,1.158,1.695,1.158.984,1.718,2.57,1.232,3.208.934.091-.728.383-1.232.693-1.512-2.443-.261-5.012-1.232-5.012-5.565,0-1.232.437-2.241,1.13-3.025-.109-.28-.492-1.438.11-2.988,0,0,.93-.299,3.026,1.158.897-.247,1.823-.372,2.752-.374.93,0,1.877.131,2.752.374,2.096-1.457,3.026-1.158,3.026-1.158.602,1.55.219,2.708.109,2.988.711.784,1.13,1.793,1.13,3.025,0,4.332-2.57,5.285-5.031,5.565.401.355.747,1.027.747,2.091,0,1.512-.018,2.726-.018,3.1,0,.299.201.654.747.542,4.374-1.494,7.528-5.714,7.528-10.7.018-6.237-4.921-11.279-10.991-11.279Z"/></symbol><symbol id="rss" viewBox="0 0 24 24"><path d="M22.999,7.094c-.001-.221-.004-.443-.01-.664-.013-.482-.041-.968-.127-1.445-.087-.484-.229-.934-.453-1.374-.22-.432-.507-.827-.85-1.17-.343-.343-.738-.63-1.17-.85-.44-.224-.89-.366-1.373-.453-.477-.086-.963-.114-1.445-.127-.221-.006-.443-.009-.664-.01-.263-.002-.526-.001-.788-.001H7.882c-.263,0-.526,0-.788.001-.221.001-.443.004-.664.01-.482.013-.969.041-1.445.127-.484.087-.934.229-1.373.453-.432.22-.827.507-1.17.85-.343.343-.63.738-.85,1.17-.224.44-.366.89-.453,1.374-.086.477-.114.963-.127,1.445-.006.221-.009.443-.01.664-.002.263-.001.525-.001.788v8.236c0,.263,0,.526.001.788.001.221.004.443.01.664.013.482.041.968.127,1.445.087.484.229.934.453,1.374.22.432.507.827.85,1.17s.738.63,1.17.85c.44.224.89.366,1.373.453.477.086.963.114,1.445.127.221.006.443.008.664.01.263.002.526.002.788.002h8.236c.263,0,.526,0,.788-.002.221-.001.443-.004.664-.01.482-.013.969-.041,1.445-.127.484-.087.934-.229,1.373-.453.432-.22.827-.507,1.17-.85s.63-.738.85-1.17c.224-.44.366-.89.453-1.374.086-.477.114-.963.127-1.445.006-.221.009-.443.01-.664.002-.263.001-.526.001-.788V7.882c0-.263,0-.526-.001-.788ZM7.333,19c-1.289,0-2.333-1.045-2.333-2.333s1.045-2.333,2.333-2.333,2.333,1.045,2.333,2.333-1.045,2.333-2.333,2.333ZM12,19c0-3.866-3.134-7-7-7v-2.333c5.155,0,9.333,4.179,9.333,9.333h-2.333ZM16.667,19c0-6.443-5.223-11.667-11.667-11.667v-2.333c7.732,0,14,6.268,14,14h-2.333Z"/></symbol><symbol id="email" viewBox="0 0 24 24"><path d="m23,6.977v10.648c0,1.787-1.362,3.265-3.106,3.369l-.194.006H4.3c-1.747,0-3.192-1.393-3.294-3.177l-.006-.198V6.977l10.389,7.084.128.074c.305.152.661.152.966,0l.128-.074s10.389-7.084,10.389-7.084Zm-3.3-3.977c1.188,0,2.23.641,2.811,1.605l-10.511,7.166L1.489,4.605c.56-.93,1.524-1.525,2.589-1.598l.221-.008h15.4Z" /></symbol></svg>